<svg id="svg" version="1.1" xmlns="http://www.w3.org/2000/svg" xmlns:xlink="http://www.w3.org/1999/xlink" width="400" height="400" viewBox="0, 0, 400,400"><g id="svgg"><path id="path0" d="M160.921 131.900 C 161.813 132.789,162.092 132.891,162.376 132.435 C 162.838 131.693,161.943 130.800,160.738 130.800 C 159.823 130.800,159.824 130.806,160.921 131.900 M243.467 287.867 C 243.320 288.013,243.200 290.983,243.200 294.467 L 243.200 300.800 244.600 300.800 L 246.000 300.800 246.000 294.200 L 246.000 287.600 244.867 287.600 C 244.243 287.600,243.613 287.720,243.467 287.867 M247.885 287.848 C 247.728 288.005,247.600 290.983,247.600 294.467 L 247.600 300.800 249.010 300.800 L 250.420 300.800 250.310 294.300 L 250.200 287.800 249.185 287.682 C 248.627 287.617,248.042 287.692,247.885 287.848 M273.168 289.875 C 273.151 291.154,273.046 291.975,272.935 291.700 C 272.407 290.392,268.576 291.108,267.047 292.801 C 263.302 296.946,265.716 300.800,272.057 300.800 L 276.020 300.800 275.910 294.300 L 275.800 287.800 274.500 287.675 L 273.200 287.549 273.168 289.875 M310.808 288.879 C 310.365 289.606,310.002 290.425,310.001 290.700 C 310.001 290.975,309.640 291.200,309.200 291.200 C 308.578 291.200,308.400 291.467,308.400 292.400 C 308.400 293.333,308.578 293.600,309.200 293.600 C 309.941 293.600,310.000 293.867,310.000 297.200 L 310.000 300.800 311.400 300.800 L 312.800 300.800 312.800 297.200 L 312.800 293.600 314.200 293.600 L 315.600 293.600 315.600 296.538 C 315.600 300.192,316.108 300.800,319.159 300.800 C 321.890 300.800,322.191 299.099,319.500 298.876 L 318.000 298.752 318.000 296.132 C 318.000 293.554,318.015 293.517,318.979 293.759 C 319.673 293.933,320.077 293.800,320.367 293.302 C 320.755 292.635,320.776 292.635,320.788 293.300 C 320.795 293.685,320.959 294.000,321.153 294.000 C 321.348 294.000,321.606 294.405,321.727 294.900 C 322.802 299.282,323.650 300.800,325.028 300.800 C 326.136 300.800,326.430 300.619,326.632 299.816 C 326.767 299.275,327.119 298.633,327.414 298.389 C 327.708 298.145,328.077 297.372,328.234 296.672 C 328.558 295.232,328.635 295.370,329.594 299.100 C 330.165 301.320,334.453 301.559,333.951 299.342 C 333.908 299.154,333.976 298.730,334.102 298.400 C 334.581 297.149,336.400 291.583,336.400 291.371 C 336.400 290.879,333.858 291.442,333.557 292.000 C 333.380 292.330,332.934 293.680,332.568 295.000 C 331.950 297.223,331.872 297.326,331.507 296.400 C 331.291 295.850,330.888 294.950,330.611 294.400 C 330.335 293.850,329.991 292.905,329.847 292.300 C 329.565 291.118,327.338 290.643,327.028 291.700 C 326.095 294.889,324.987 297.290,324.861 296.400 C 324.783 295.850,324.602 295.310,324.460 295.200 C 324.317 295.090,323.930 294.190,323.600 293.200 C 322.959 291.277,323.107 291.344,319.300 291.237 C 318.279 291.208,318.000 291.028,318.000 290.400 C 318.000 289.819,317.733 289.600,317.028 289.600 C 316.324 289.600,316.020 289.351,315.928 288.700 C 315.691 287.034,311.851 287.169,310.808 288.879 M179.467 288.667 C 179.320 288.813,179.200 291.603,179.200 294.867 L 179.200 300.800 183.511 300.800 C 188.589 300.800,191.131 299.562,191.234 297.039 C 191.261 296.394,191.349 296.468,191.615 297.358 C 192.365 299.863,193.838 300.800,197.026 300.800 C 200.149 300.800,201.073 300.289,200.606 298.819 C 200.346 298.000,198.800 297.641,198.800 298.400 C 198.800 299.049,195.720 298.863,195.029 298.171 C 194.683 297.826,194.400 297.511,194.399 297.471 C 194.399 297.432,195.942 297.459,197.829 297.530 C 200.988 297.650,201.276 297.597,201.470 296.855 C 201.678 296.057,201.696 296.057,203.340 296.802 C 204.253 297.216,205.495 297.659,206.100 297.785 C 206.705 297.912,207.200 298.192,207.200 298.408 C 207.200 298.924,203.720 298.917,203.400 298.400 C 202.896 297.585,201.619 297.986,201.353 299.043 C 200.832 301.122,208.343 301.841,209.272 299.801 L 209.727 298.802 210.175 299.701 C 210.589 300.534,210.927 300.608,214.751 300.714 L 218.881 300.829 218.740 297.240 C 218.610 293.906,218.517 293.565,217.425 292.426 C 215.356 290.267,209.594 291.057,210.069 293.434 C 210.184 294.007,210.521 294.179,211.411 294.117 C 212.065 294.071,213.197 293.990,213.927 293.937 C 216.570 293.744,216.266 294.971,213.604 295.238 C 211.019 295.497,210.139 295.991,209.878 297.329 C 209.713 298.178,209.708 298.177,209.654 297.280 C 209.592 296.225,207.600 295.200,205.613 295.200 C 204.833 295.200,204.400 294.998,204.400 294.633 C 204.400 293.844,205.102 293.663,207.257 293.898 C 209.418 294.134,210.403 292.895,208.936 291.783 C 206.651 290.052,201.620 291.761,201.584 294.281 L 201.569 295.400 201.027 294.155 C 199.175 289.901,193.337 290.310,191.976 294.789 L 191.669 295.800 191.634 294.760 C 191.548 292.144,190.081 289.902,188.100 289.360 C 187.605 289.224,187.200 288.953,187.200 288.757 C 187.200 288.348,179.871 288.262,179.467 288.667 M315.599 290.700 C 315.600 291.005,315.054 291.200,314.200 291.200 C 312.924 291.200,312.468 290.865,313.009 290.325 C 313.432 289.901,315.598 290.215,315.599 290.700 M186.916 291.700 C 190.627 294.302,188.879 298.800,184.158 298.800 L 182.000 298.800 182.000 294.800 L 182.000 290.800 183.816 290.800 C 185.053 290.800,186.042 291.087,186.916 291.700 M220.267 291.467 C 220.120 291.613,220.000 293.773,220.000 296.267 L 220.000 300.800 221.400 300.800 L 222.800 300.800 222.800 298.076 C 222.800 295.080,223.260 294.126,224.800 293.928 C 226.365 293.728,226.259 291.453,224.676 291.271 C 224.058 291.200,223.293 291.357,222.976 291.620 C 222.567 291.959,222.400 291.968,222.400 291.649 C 222.400 291.168,220.710 291.023,220.267 291.467 M226.667 291.467 C 226.520 291.613,226.400 293.773,226.400 296.267 L 226.400 300.800 227.800 300.800 L 229.200 300.800 229.213 298.100 C 229.227 295.043,229.769 294.000,231.344 294.000 C 232.284 294.000,232.400 293.846,232.400 292.600 C 232.400 291.129,230.035 290.411,229.433 291.700 C 229.247 292.100,229.153 292.100,228.967 291.700 C 228.721 291.174,227.122 291.011,226.667 291.467 M233.651 292.991 C 231.488 295.337,231.390 297.106,233.300 299.307 C 235.623 301.985,240.640 301.329,242.337 298.126 C 243.887 295.201,241.035 291.200,237.400 291.200 C 235.427 291.200,235.203 291.307,233.651 292.991 M252.700 292.772 C 250.975 294.550,250.641 297.011,251.882 298.811 C 254.223 302.208,260.563 301.412,261.396 297.617 C 262.546 292.383,256.401 288.960,252.700 292.772 M278.240 292.640 C 276.142 294.738,276.092 298.220,278.138 299.780 C 280.668 301.710,287.033 300.937,285.730 298.857 C 285.259 298.105,283.600 297.728,283.600 298.372 C 283.600 298.958,280.675 298.915,280.080 298.320 C 279.236 297.476,279.531 297.397,283.053 297.531 L 286.508 297.662 286.320 295.713 C 285.897 291.304,281.317 289.563,278.240 292.640 M291.500 292.394 C 289.447 294.549,291.039 297.249,294.610 297.668 C 296.566 297.897,296.293 298.800,294.267 298.800 C 293.190 298.800,292.394 298.599,292.285 298.300 C 292.011 297.548,290.629 298.484,290.474 299.527 C 290.165 301.603,297.447 301.306,298.499 299.200 C 298.884 298.430,299.199 298.103,299.199 298.473 C 299.202 300.801,305.936 301.825,307.571 299.746 C 308.027 299.166,308.400 298.446,308.400 298.146 C 308.400 297.846,308.580 297.600,308.800 297.600 C 310.018 297.600,308.602 293.649,306.829 292.100 C 304.036 289.659,298.800 292.029,298.800 295.735 C 298.800 297.327,298.781 297.351,298.186 296.501 C 297.756 295.888,296.981 295.545,295.610 295.364 C 294.515 295.218,293.555 294.860,293.437 294.552 C 293.212 293.965,293.461 293.905,296.390 293.840 C 297.774 293.809,298.212 293.637,298.323 293.081 C 298.768 290.845,293.481 290.313,291.500 292.394 M337.600 291.600 C 337.600 291.820,337.330 292.000,337.000 292.000 C 336.595 292.000,336.400 292.405,336.400 293.245 C 336.400 294.472,336.421 294.485,337.900 294.176 C 340.005 293.738,341.249 293.832,341.641 294.461 C 341.897 294.871,341.623 295.025,340.489 295.107 C 336.163 295.416,334.228 297.771,336.526 299.930 C 337.340 300.695,337.902 300.800,341.180 300.800 L 344.909 300.800 344.712 297.040 C 344.455 292.124,343.713 291.200,340.018 291.200 C 338.673 291.200,337.600 291.377,337.600 291.600 M346.267 291.467 C 346.120 291.613,346.000 293.773,346.000 296.267 L 346.000 300.800 347.584 300.800 L 349.168 300.800 349.284 297.500 L 349.400 294.200 350.699 294.075 C 352.015 293.948,352.833 292.625,352.214 291.623 C 351.849 291.031,349.317 291.093,349.033 291.700 C 348.847 292.100,348.753 292.100,348.567 291.700 C 348.321 291.174,346.722 291.011,346.267 291.467 M353.251 292.991 C 349.846 296.685,351.833 300.818,357.000 300.790 C 360.640 300.770,361.971 299.914,360.558 298.501 C 360.044 297.987,359.767 297.953,359.164 298.330 C 358.041 299.031,355.820 298.905,355.089 298.100 C 354.488 297.438,354.635 297.407,357.827 297.529 L 361.200 297.659 361.200 295.705 C 361.200 291.131,356.458 289.512,353.251 292.991 M198.677 294.620 C 199.184 295.127,198.952 295.200,196.841 295.200 C 194.900 295.200,194.469 295.086,194.647 294.623 C 195.078 293.498,197.553 293.496,198.677 294.620 M258.433 295.086 C 259.147 296.963,258.358 298.583,256.661 298.725 C 254.211 298.930,252.850 296.746,254.309 294.948 C 255.581 293.380,257.812 293.454,258.433 295.086 M272.920 295.359 C 273.940 298.420,270.087 300.424,268.697 297.555 C 268.181 296.490,268.173 296.158,268.640 295.255 C 269.637 293.330,272.264 293.393,272.920 295.359 M283.256 294.387 L 284.200 295.173 281.900 295.187 C 279.583 295.200,279.008 294.785,280.300 294.032 C 281.359 293.415,282.212 293.518,283.256 294.387 M358.456 294.387 L 359.400 295.173 356.876 295.187 C 354.326 295.200,353.890 294.744,355.741 293.997 C 357.039 293.474,357.426 293.529,358.456 294.387 M239.632 295.084 C 240.465 297.276,239.527 298.783,237.323 298.794 C 235.320 298.803,234.383 297.148,235.190 295.026 C 235.787 293.455,239.029 293.498,239.632 295.084 M305.832 295.431 C 306.233 297.567,305.522 298.800,303.889 298.800 C 301.842 298.800,300.945 296.973,301.843 294.633 C 302.398 293.187,305.529 293.813,305.832 295.431 M216.000 297.571 C 216.000 299.032,212.745 299.729,212.479 298.326 C 212.381 297.809,212.708 297.614,213.876 297.493 C 214.714 297.406,215.535 297.304,215.700 297.267 C 215.865 297.230,216.000 297.367,216.000 297.571 M341.738 298.216 C 341.425 299.034,339.716 299.394,338.995 298.796 C 338.045 298.007,338.293 297.658,339.900 297.518 C 341.747 297.358,342.027 297.464,341.738 298.216 " stroke="none" fill="#fcfcfc" fill-rule="evenodd"></path><path id="path1" d="M173.200 86.132 C 166.903 89.077,164.070 95.877,166.482 102.264 C 167.626 105.296,170.959 108.627,173.484 109.263 C 174.435 109.502,175.311 109.856,175.430 110.049 C 175.734 110.540,180.800 110.493,180.800 110.000 C 180.800 109.780,181.133 109.600,181.540 109.600 C 183.499 109.600,188.733 105.625,188.783 104.100 C 188.793 103.825,188.980 103.600,189.200 103.600 C 189.420 103.600,189.600 103.345,189.600 103.033 C 189.600 102.722,189.825 102.392,190.100 102.300 C 191.430 101.857,190.709 93.989,189.115 91.555 C 185.716 86.363,178.191 83.799,173.200 86.132 M153.331 131.044 C 146.614 134.357,145.079 144.195,150.713 147.826 C 151.311 148.211,151.940 148.761,152.111 149.047 C 153.167 150.816,160.474 150.793,162.355 149.014 C 162.710 148.679,163.592 147.932,164.315 147.354 C 167.965 144.439,168.090 137.526,164.561 133.736 C 163.093 132.159,162.695 131.917,162.377 132.404 C 162.053 132.900,161.788 132.782,160.800 131.700 C 159.411 130.181,155.736 129.858,153.331 131.044 M196.600 154.260 C 188.606 157.090,190.400 168.714,198.840 168.782 C 207.710 168.853,209.557 157.441,201.187 154.284 C 199.095 153.495,198.765 153.493,196.600 154.260 M175.132 178.811 C 169.283 181.900,171.240 190.400,177.800 190.400 C 179.543 190.400,181.999 189.517,182.000 188.890 C 182.001 188.730,182.451 188.077,183.000 187.438 C 183.759 186.556,184.000 185.824,184.000 184.400 C 184.000 182.976,183.759 182.244,183.000 181.362 C 182.451 180.723,182.001 180.069,182.000 179.909 C 181.998 178.459,177.239 177.698,175.132 178.811 M199.189 217.876 C 198.645 218.248,198.080 218.743,197.934 218.976 C 197.788 219.209,196.219 220.930,194.448 222.800 C 190.243 227.239,190.233 227.200,195.547 227.200 L 199.893 227.200 202.400 224.800 C 203.779 223.480,205.063 222.400,205.253 222.400 C 205.444 222.400,205.611 222.175,205.624 221.900 C 205.638 221.625,206.437 220.770,207.400 220.000 C 210.378 217.620,209.971 217.200,204.689 217.200 C 201.111 217.200,199.973 217.340,199.189 217.876 " stroke="none" fill="#a4bc04" fill-rule="evenodd"></path><path id="path2" d="M126.800 206.795 C 125.948 207.288,124.653 207.738,124.300 207.664 C 124.135 207.629,124.000 207.791,124.000 208.024 C 124.000 208.257,123.835 208.345,123.634 208.221 C 123.433 208.097,123.205 208.186,123.127 208.419 C 123.049 208.653,122.629 208.896,122.193 208.960 C 121.757 209.024,121.378 209.284,121.350 209.538 C 121.322 209.792,121.278 210.191,121.250 210.424 C 121.222 210.657,121.065 210.770,120.900 210.676 C 120.735 210.581,120.150 211.059,119.600 211.737 C 119.050 212.415,118.825 212.831,119.100 212.661 C 119.375 212.492,119.600 212.528,119.600 212.743 C 119.600 212.958,119.395 213.202,119.145 213.285 C 118.895 213.368,118.670 214.176,118.645 215.080 C 118.620 215.985,118.735 216.641,118.900 216.539 C 119.298 216.292,119.279 216.541,118.801 217.797 C 118.572 218.400,118.560 218.748,118.774 218.616 C 118.978 218.490,119.258 218.570,119.396 218.793 C 119.534 219.017,119.495 219.200,119.309 219.200 C 118.640 219.200,118.989 220.806,119.708 221.034 C 120.113 221.163,120.371 221.478,120.281 221.734 C 120.104 222.242,121.678 223.908,123.400 225.037 C 125.036 226.109,131.614 226.558,131.927 225.620 C 132.005 225.386,132.225 225.292,132.415 225.410 C 133.041 225.796,136.800 222.271,136.800 221.298 C 136.800 221.010,137.080 220.667,137.423 220.536 C 137.766 220.404,137.956 220.062,137.845 219.774 C 137.735 219.487,137.860 219.164,138.122 219.057 C 138.385 218.951,138.416 218.849,138.191 218.832 C 137.944 218.812,137.814 217.622,137.863 215.823 C 137.930 213.383,137.842 212.886,137.372 213.066 C 137.058 213.187,136.800 213.086,136.800 212.843 C 136.800 212.599,137.020 212.400,137.289 212.400 C 137.558 212.400,137.375 212.118,136.882 211.773 C 136.390 211.428,136.109 210.947,136.259 210.705 C 136.434 210.422,136.295 210.355,135.870 210.518 C 135.479 210.668,135.248 210.586,135.305 210.318 C 135.357 210.069,134.984 209.648,134.475 209.383 C 133.966 209.118,133.606 208.764,133.675 208.596 C 133.744 208.429,133.395 208.142,132.900 207.959 C 132.405 207.776,131.989 207.755,131.975 207.913 C 131.961 208.071,131.787 207.795,131.588 207.300 C 131.388 206.803,130.907 206.421,130.513 206.446 C 129.845 206.490,129.844 206.504,130.500 206.676 C 130.885 206.776,131.200 207.020,131.200 207.217 C 131.200 207.662,129.902 207.211,129.517 206.633 C 129.321 206.339,129.079 206.361,128.737 206.703 C 128.143 207.297,127.449 207.368,127.800 206.800 C 128.097 206.319,127.625 206.317,126.800 206.795 M83.766 215.946 C 83.885 216.137,78.899 216.271,72.590 216.246 L 61.201 216.200 61.206 242.600 C 61.210 257.120,61.344 268.820,61.506 268.600 C 61.694 268.344,64.323 268.284,68.800 268.432 L 75.800 268.664 68.937 268.632 C 65.163 268.614,62.159 268.735,62.261 268.900 C 62.482 269.256,74.851 269.309,75.765 268.958 C 76.112 268.825,76.296 268.555,76.174 268.358 C 76.052 268.161,76.147 268.000,76.384 268.000 C 76.688 268.000,76.784 262.680,76.708 250.000 C 76.613 234.221,76.674 231.999,77.200 231.994 C 77.712 231.989,77.717 231.935,77.229 231.626 C 76.536 231.188,82.749 231.337,84.762 231.807 C 85.812 232.052,86.053 232.010,85.814 231.623 C 85.574 231.234,85.684 231.217,86.299 231.546 C 86.737 231.780,87.237 231.843,87.412 231.686 C 87.586 231.529,87.599 231.625,87.441 231.900 C 87.150 232.405,87.574 232.556,88.900 232.421 C 89.285 232.382,89.600 232.520,89.600 232.728 C 89.600 232.936,89.978 233.206,90.440 233.326 C 90.916 233.451,91.163 233.736,91.011 233.983 C 90.862 234.223,90.889 234.394,91.070 234.363 C 91.867 234.224,92.428 234.431,92.211 234.782 C 92.081 234.993,92.411 235.451,92.945 235.801 C 93.603 236.232,93.850 236.688,93.711 237.218 C 93.599 237.648,93.688 238.000,93.911 238.000 C 94.133 238.000,94.422 238.279,94.553 238.621 C 94.689 238.977,94.622 239.137,94.395 238.997 C 94.178 238.863,94.000 238.928,94.000 239.143 C 94.000 239.358,94.198 239.599,94.440 239.680 C 94.682 239.761,94.856 240.496,94.827 241.313 C 94.743 243.634,94.686 244.000,94.403 244.000 C 94.257 244.000,94.218 244.540,94.315 245.200 C 94.429 245.978,94.318 246.400,93.999 246.400 C 93.704 246.400,93.590 246.720,93.716 247.200 C 93.852 247.720,93.728 248.000,93.363 248.000 C 93.053 248.000,92.845 248.225,92.900 248.500 C 92.955 248.775,92.762 248.951,92.470 248.890 C 92.179 248.830,92.058 248.970,92.201 249.201 C 92.550 249.766,90.816 251.170,89.749 251.187 C 89.281 251.194,88.668 251.477,88.388 251.815 C 88.107 252.153,87.590 252.382,87.239 252.325 C 86.887 252.267,86.337 252.384,86.016 252.585 C 85.695 252.786,84.660 252.903,83.716 252.845 C 82.693 252.782,82.000 252.913,82.000 253.170 C 82.000 253.406,81.730 253.600,81.400 253.600 C 81.070 253.600,80.800 253.450,80.800 253.267 C 80.800 252.778,79.448 252.848,79.119 253.353 C 78.697 254.003,78.787 267.228,79.219 268.035 C 79.477 268.518,79.439 268.797,79.097 268.933 C 78.824 269.041,79.180 269.069,79.889 268.995 C 80.598 268.922,81.363 268.747,81.589 268.607 C 81.815 268.467,82.000 268.498,82.000 268.676 C 82.001 269.184,88.724 269.036,89.242 268.518 C 89.493 268.267,89.948 268.159,90.254 268.276 C 90.560 268.393,91.112 268.244,91.482 267.945 C 92.060 267.476,92.104 267.484,91.800 268.000 C 91.504 268.502,91.548 268.517,92.073 268.093 C 92.417 267.814,92.968 267.690,93.298 267.816 C 93.627 267.943,93.995 267.789,94.116 267.474 C 94.237 267.160,94.844 266.775,95.465 266.619 C 96.087 266.463,96.839 266.134,97.137 265.886 C 97.434 265.639,98.056 265.380,98.518 265.309 C 99.546 265.152,100.800 264.069,100.800 263.338 C 100.800 263.042,101.153 262.800,101.584 262.800 C 102.016 262.800,102.601 262.516,102.884 262.168 C 103.168 261.821,104.030 260.892,104.800 260.104 C 105.570 259.317,106.222 258.521,106.250 258.336 C 106.278 258.151,106.322 257.820,106.350 257.600 C 106.378 257.380,106.664 257.200,106.987 257.200 C 107.345 257.200,107.485 256.965,107.345 256.600 C 107.214 256.260,107.335 256.000,107.624 256.000 C 107.904 256.000,108.016 255.883,107.873 255.740 C 107.730 255.596,107.879 255.281,108.205 255.040 C 108.531 254.798,108.837 254.118,108.884 253.529 C 108.931 252.940,109.112 252.545,109.285 252.652 C 109.458 252.760,109.600 252.567,109.600 252.224 C 109.600 251.881,109.791 251.600,110.024 251.600 C 110.257 251.600,110.324 251.400,110.172 251.155 C 110.021 250.911,110.146 250.551,110.449 250.355 C 110.912 250.056,110.906 249.940,110.411 249.622 C 109.908 249.298,109.924 249.204,110.523 248.974 C 111.188 248.719,111.188 248.676,110.512 248.123 C 110.120 247.803,110.003 247.641,110.250 247.763 C 110.724 247.997,111.392 245.035,111.006 244.410 C 110.890 244.222,111.021 243.977,111.298 243.866 C 111.574 243.754,111.616 243.649,111.391 243.632 C 110.943 243.597,110.926 240.367,111.370 239.648 C 111.523 239.402,111.457 239.200,111.224 239.200 C 110.991 239.200,110.800 239.009,110.800 238.776 C 110.800 238.543,110.998 238.475,111.240 238.625 C 111.536 238.808,111.526 238.608,111.207 238.014 C 110.948 237.529,110.838 237.028,110.964 236.903 C 111.090 236.777,110.970 236.397,110.697 236.060 C 110.284 235.551,110.302 235.507,110.800 235.800 C 111.316 236.104,111.324 236.060,110.855 235.482 C 110.556 235.112,110.419 234.529,110.551 234.184 C 110.702 233.791,110.628 233.659,110.353 233.829 C 110.064 234.008,110.001 233.827,110.168 233.300 C 110.358 232.701,110.208 232.443,109.571 232.277 C 109.103 232.154,108.827 231.880,108.958 231.669 C 109.089 231.457,108.928 230.770,108.600 230.142 C 108.273 229.514,108.004 228.674,108.002 228.276 C 108.001 227.878,107.832 227.656,107.628 227.783 C 107.423 227.909,107.142 227.830,107.004 227.607 C 106.866 227.383,106.988 227.189,107.276 227.175 C 107.564 227.161,107.391 226.985,106.891 226.784 C 106.391 226.583,105.870 226.127,105.733 225.770 C 105.420 224.953,103.835 223.354,102.780 222.789 C 102.339 222.553,102.100 222.161,102.251 221.918 C 102.406 221.667,102.342 221.589,102.104 221.736 C 101.873 221.879,101.581 221.726,101.454 221.398 C 101.328 221.069,100.881 220.800,100.460 220.800 C 100.039 220.800,99.107 220.215,98.388 219.500 C 97.669 218.785,97.208 218.425,97.364 218.700 C 97.753 219.387,97.424 219.331,95.594 218.397 C 94.728 217.955,93.880 217.616,93.710 217.644 C 92.941 217.770,92.372 217.569,92.574 217.242 C 92.695 217.046,92.391 216.899,91.897 216.917 C 90.329 216.972,87.512 216.425,86.946 215.955 C 86.537 215.616,86.250 215.627,85.800 216.000 C 85.385 216.344,85.200 216.359,85.200 216.049 C 85.200 215.802,84.829 215.600,84.376 215.600 C 83.923 215.600,83.649 215.756,83.766 215.946 M219.492 215.873 C 219.389 216.053,219.407 216.560,219.533 217.000 C 219.971 218.526,220.044 248.474,219.609 248.206 C 219.384 248.067,219.200 248.143,219.200 248.376 C 219.200 248.609,219.380 248.800,219.600 248.800 C 219.820 248.800,220.000 248.991,220.000 249.224 C 220.000 249.457,219.837 249.546,219.637 249.423 C 219.438 249.300,219.369 249.559,219.484 249.999 C 219.599 250.440,219.838 250.800,220.014 250.800 C 220.191 250.800,220.158 251.442,219.941 252.227 C 219.696 253.118,219.688 253.832,219.922 254.127 C 220.129 254.387,220.246 254.916,220.184 255.302 C 220.121 255.688,220.239 255.899,220.445 255.772 C 220.805 255.549,221.867 257.881,221.687 258.500 C 221.639 258.665,221.810 258.800,222.067 258.800 C 222.323 258.800,222.412 258.922,222.263 259.070 C 222.114 259.219,222.399 259.788,222.896 260.335 C 223.393 260.882,223.547 261.182,223.238 261.003 C 222.848 260.776,222.769 260.826,222.979 261.165 C 223.145 261.434,223.512 261.566,223.795 261.457 C 224.150 261.321,224.241 261.520,224.090 262.097 C 223.921 262.747,224.016 262.879,224.515 262.688 C 224.954 262.519,225.245 262.721,225.429 263.320 C 225.790 264.497,226.888 265.504,227.564 265.279 C 227.865 265.178,227.999 265.279,227.861 265.502 C 227.619 265.892,229.887 267.089,230.500 266.895 C 230.665 266.843,230.800 267.074,230.800 267.408 C 230.800 267.837,231.092 267.963,231.793 267.835 C 232.340 267.736,232.898 267.835,233.034 268.055 C 233.170 268.275,233.527 268.360,233.828 268.245 C 234.128 268.129,234.498 268.235,234.649 268.479 C 234.827 268.767,234.739 268.810,234.400 268.600 C 234.054 268.386,233.973 268.433,234.162 268.738 C 234.319 268.992,234.717 269.200,235.047 269.200 C 235.377 269.200,235.559 269.057,235.451 268.882 C 235.342 268.707,235.737 268.594,236.327 268.630 C 237.980 268.733,238.066 268.769,237.775 269.240 C 237.584 269.549,237.756 269.545,238.352 269.226 C 238.989 268.885,239.200 268.887,239.200 269.235 C 239.200 269.552,239.414 269.525,239.877 269.149 C 240.337 268.776,240.457 268.760,240.253 269.100 C 240.069 269.407,240.174 269.600,240.524 269.600 C 241.000 269.600,241.101 268.228,241.124 261.400 C 241.140 256.890,240.995 253.200,240.802 253.200 C 240.610 253.200,239.997 253.373,239.440 253.585 C 238.769 253.840,238.343 253.831,238.174 253.557 C 238.034 253.331,237.658 253.246,237.339 253.368 C 237.015 253.493,236.866 253.416,237.003 253.195 C 237.137 252.978,237.027 252.800,236.757 252.800 C 236.487 252.800,236.378 252.689,236.514 252.552 C 236.827 252.240,236.046 251.455,235.000 251.031 C 234.485 250.822,234.379 250.640,234.702 250.519 C 234.979 250.416,235.083 250.135,234.935 249.895 C 234.786 249.655,234.650 248.705,234.632 247.786 L 234.600 246.114 236.903 246.045 C 238.170 246.007,239.568 246.169,240.009 246.405 C 240.450 246.641,240.788 246.692,240.758 246.517 C 240.729 246.343,240.736 246.020,240.774 245.800 C 241.169 243.508,240.920 231.178,240.475 231.007 C 240.186 230.896,240.051 230.641,240.176 230.440 C 240.304 230.231,239.190 230.078,237.587 230.084 L 234.772 230.095 234.745 222.891 L 234.718 215.687 233.320 216.073 C 231.743 216.508,221.355 216.335,220.340 215.857 C 219.978 215.685,219.596 215.693,219.492 215.873 M296.792 216.541 C 296.698 217.013,296.616 229.010,296.610 243.200 L 296.600 269.000 303.851 269.109 C 310.838 269.214,311.110 269.188,311.314 268.409 C 311.430 267.964,311.370 267.600,311.180 267.600 C 310.990 267.600,310.823 256.440,310.809 242.800 C 310.795 229.160,310.922 218.000,311.092 218.000 C 311.263 218.000,311.409 217.460,311.418 216.800 C 311.434 215.602,311.067 215.244,310.600 216.000 C 310.289 216.503,299.216 216.539,297.908 216.041 C 297.116 215.740,296.936 215.820,296.792 216.541 M234.297 226.500 C 234.221 228.095,234.159 226.790,234.159 223.600 C 234.159 220.410,234.221 219.105,234.297 220.700 C 234.373 222.295,234.373 224.905,234.297 226.500 M164.051 229.233 C 163.310 229.390,162.275 229.472,161.751 229.414 C 161.228 229.357,160.800 229.449,160.800 229.620 C 160.800 229.790,160.485 229.883,160.101 229.827 C 159.716 229.770,158.795 229.977,158.054 230.287 C 157.313 230.596,156.460 230.755,156.158 230.639 C 155.835 230.515,155.377 230.874,155.042 231.515 C 154.729 232.112,154.366 232.555,154.236 232.500 C 153.689 232.268,153.169 232.427,153.377 232.763 C 153.500 232.962,153.196 233.026,152.701 232.904 C 152.205 232.782,151.932 232.826,152.093 233.001 C 152.255 233.177,151.895 233.778,151.293 234.338 C 150.692 234.898,150.249 235.514,150.310 235.707 C 150.370 235.901,150.259 235.960,150.062 235.838 C 149.614 235.561,147.919 236.986,148.274 237.341 C 148.417 237.483,148.293 237.600,148.000 237.600 C 147.707 237.600,147.584 237.717,147.727 237.860 C 147.870 238.004,147.675 238.377,147.294 238.690 C 146.832 239.069,146.800 239.173,147.200 238.999 C 147.530 238.856,147.403 239.090,146.917 239.520 C 146.431 239.949,146.145 240.412,146.281 240.548 C 146.417 240.684,146.252 241.111,145.914 241.498 C 145.576 241.884,145.351 242.514,145.414 242.898 C 145.477 243.283,145.373 243.693,145.182 243.811 C 144.991 243.929,144.937 244.292,145.062 244.618 C 145.187 244.944,145.044 245.512,144.745 245.882 C 144.277 246.459,144.284 246.506,144.800 246.218 C 145.288 245.945,145.307 245.983,144.900 246.421 C 144.304 247.064,144.233 247.751,144.799 247.401 C 145.049 247.246,145.038 247.572,144.769 248.277 C 144.534 248.895,144.455 250.163,144.595 251.096 C 144.734 252.029,144.823 252.894,144.792 253.017 C 144.761 253.141,145.018 253.673,145.363 254.200 C 145.749 254.789,145.839 255.252,145.596 255.403 C 145.378 255.537,145.200 255.827,145.200 256.047 C 145.200 256.267,145.380 256.336,145.600 256.200 C 145.820 256.064,146.000 256.323,146.000 256.776 C 146.000 257.229,146.174 257.600,146.387 257.600 C 146.601 257.600,146.678 257.852,146.560 258.160 C 146.442 258.467,146.566 258.855,146.835 259.021 C 147.136 259.208,147.221 259.157,147.055 258.889 C 146.908 258.651,146.998 258.325,147.255 258.166 C 147.519 258.003,147.617 258.049,147.479 258.271 C 147.345 258.489,147.669 259.305,148.199 260.085 C 148.729 260.865,149.068 261.599,148.951 261.715 C 148.835 261.832,149.116 262.046,149.576 262.192 C 150.035 262.338,150.319 262.608,150.205 262.791 C 150.092 262.975,150.387 263.024,150.862 262.900 C 151.396 262.760,151.629 262.830,151.472 263.084 C 151.153 263.599,152.212 264.515,153.900 265.183 C 154.615 265.466,155.200 265.835,155.200 266.003 C 155.200 266.970,164.616 267.388,165.700 266.470 C 166.085 266.143,166.400 266.007,166.400 266.167 C 166.400 266.326,166.677 266.180,167.016 265.841 C 167.735 265.122,167.852 252.800,167.140 252.800 C 166.927 252.800,166.864 252.620,167.000 252.400 C 167.136 252.180,167.072 252.000,166.857 252.000 C 166.642 252.000,166.403 252.192,166.324 252.427 C 166.142 252.974,162.423 253.192,162.525 252.649 C 162.566 252.428,162.240 252.172,161.800 252.081 C 160.287 251.765,159.673 250.620,159.444 247.689 C 159.350 246.482,162.100 243.399,162.972 243.734 C 163.318 243.867,163.600 243.801,163.600 243.587 C 163.600 243.374,163.960 243.200,164.400 243.200 C 164.840 243.200,165.200 243.391,165.200 243.624 C 165.200 243.857,165.388 243.931,165.618 243.789 C 166.244 243.402,168.099 244.764,167.846 245.425 C 167.725 245.740,167.844 245.948,168.114 245.895 C 168.482 245.823,168.628 248.137,168.716 255.400 C 168.836 265.268,168.672 267.815,167.945 267.366 C 167.698 267.213,167.563 267.490,167.610 268.055 C 167.746 269.685,167.631 269.937,166.422 270.651 C 165.774 271.034,165.353 271.524,165.487 271.741 C 165.627 271.967,165.467 272.034,165.114 271.899 C 164.775 271.769,164.317 271.843,164.097 272.063 C 163.523 272.637,158.800 272.828,158.800 272.278 C 158.800 271.984,158.642 271.998,158.320 272.320 C 158.056 272.584,157.666 272.800,157.453 272.800 C 157.241 272.800,157.184 272.683,157.327 272.540 C 157.590 272.277,156.464 271.236,155.892 271.213 C 155.723 271.206,155.664 271.640,155.761 272.177 C 155.859 272.714,155.789 273.209,155.605 273.277 C 155.422 273.345,155.211 275.948,155.136 279.062 C 155.061 282.176,155.135 284.641,155.300 284.539 C 155.465 284.436,155.603 284.588,155.606 284.876 C 155.611 285.290,155.685 285.285,155.959 284.853 C 156.240 284.409,156.460 284.460,157.119 285.119 C 157.567 285.567,158.034 285.833,158.157 285.710 C 158.280 285.587,158.663 285.720,159.007 286.006 C 159.383 286.318,159.779 286.381,159.998 286.162 C 160.198 285.962,161.720 285.889,163.381 285.999 C 165.259 286.124,166.402 286.049,166.406 285.800 C 166.410 285.580,166.582 285.669,166.790 285.998 C 167.115 286.511,167.254 286.483,167.771 285.798 C 168.103 285.359,168.380 285.209,168.387 285.465 C 168.401 285.981,169.403 285.947,169.888 285.414 C 170.060 285.226,169.930 285.217,169.600 285.395 C 169.270 285.572,169.397 285.331,169.883 284.859 C 170.803 283.965,171.428 283.708,171.000 284.400 C 170.621 285.014,171.068 284.875,171.786 284.157 C 172.140 283.803,172.875 283.488,173.419 283.457 C 174.053 283.420,174.337 283.213,174.209 282.879 C 174.097 282.588,174.193 282.472,174.425 282.616 C 174.654 282.757,175.256 282.451,175.764 281.936 C 176.272 281.421,177.031 280.730,177.452 280.400 C 177.873 280.070,178.563 279.136,178.986 278.324 C 179.409 277.513,179.901 276.939,180.078 277.048 C 180.255 277.158,180.400 276.866,180.400 276.400 C 180.400 275.934,180.560 275.651,180.755 275.772 C 180.950 275.893,181.085 275.678,181.055 275.296 C 181.025 274.911,181.237 274.649,181.530 274.710 C 181.821 274.770,181.941 274.627,181.795 274.392 C 181.650 274.157,181.712 273.747,181.933 273.481 C 182.153 273.215,182.294 272.413,182.244 271.699 C 182.195 270.984,182.310 270.400,182.501 270.400 C 182.691 270.400,182.736 270.220,182.600 270.000 C 182.464 269.780,182.633 269.600,182.976 269.600 C 183.678 269.600,183.813 268.979,183.193 268.596 C 182.970 268.458,182.902 268.158,183.043 267.930 C 183.209 267.662,183.422 267.707,183.644 268.057 C 183.921 268.495,183.989 268.480,183.994 267.980 C 183.997 267.639,183.777 267.137,183.503 266.863 C 183.108 266.468,183.117 266.298,183.550 266.031 C 183.905 265.811,183.973 265.482,183.747 265.079 C 183.556 264.740,183.490 260.803,183.600 256.331 C 183.726 251.225,183.651 247.985,183.400 247.623 C 183.105 247.198,183.132 247.126,183.500 247.347 C 183.775 247.512,184.000 247.457,184.000 247.224 C 184.000 246.991,183.841 246.800,183.647 246.800 C 183.103 246.800,182.850 245.356,183.287 244.744 C 183.586 244.326,183.625 244.358,183.455 244.887 C 183.334 245.265,183.407 245.681,183.617 245.811 C 184.049 246.078,184.125 245.192,183.753 244.223 C 183.550 243.692,183.398 243.669,182.888 244.090 C 182.350 244.533,182.324 244.495,182.686 243.800 C 183.252 242.716,182.049 238.931,180.823 237.938 C 180.295 237.511,180.136 237.200,180.446 237.200 C 180.739 237.200,179.773 236.040,178.298 234.621 C 176.319 232.719,175.390 232.086,174.754 232.209 C 174.280 232.300,174.000 232.267,174.132 232.135 C 174.604 231.662,173.551 230.333,172.901 230.583 C 172.551 230.717,172.117 230.596,171.938 230.314 C 171.696 229.932,171.611 229.925,171.606 230.287 C 171.599 230.840,170.372 230.509,169.906 229.829 C 169.712 229.545,169.610 229.577,169.606 229.923 C 169.601 230.335,169.426 230.324,168.774 229.867 C 168.320 229.549,167.572 229.387,167.112 229.507 C 166.542 229.656,166.366 229.578,166.561 229.263 C 166.718 229.008,166.657 228.800,166.424 228.800 C 166.191 228.800,165.997 229.025,165.994 229.300 C 165.990 229.634,165.890 229.658,165.694 229.373 C 165.514 229.112,164.877 229.058,164.051 229.233 M266.257 229.076 C 266.104 229.229,265.579 229.411,265.090 229.482 C 264.600 229.552,263.930 229.727,263.600 229.870 C 263.270 230.014,262.865 230.169,262.700 230.215 C 262.535 230.262,262.265 230.342,262.100 230.394 C 261.935 230.446,261.382 230.454,260.871 230.412 C 260.263 230.362,259.875 230.590,259.749 231.073 C 259.518 231.957,257.306 233.313,256.703 232.940 C 256.451 232.784,256.393 232.866,256.562 233.138 C 256.731 233.412,256.593 233.600,256.224 233.600 C 255.881 233.600,255.645 233.735,255.700 233.900 C 255.755 234.065,255.663 234.243,255.495 234.295 C 254.695 234.543,252.400 237.008,252.400 237.618 C 252.400 237.998,251.936 238.612,251.369 238.984 C 250.763 239.381,250.428 239.895,250.556 240.230 C 250.676 240.543,250.637 240.800,250.467 240.800 C 250.192 240.800,250.055 241.605,249.977 243.700 C 249.962 244.085,249.804 244.400,249.625 244.400 C 249.142 244.400,248.733 246.893,249.148 247.308 C 249.358 247.518,249.263 248.152,248.916 248.848 C 248.549 249.583,248.463 250.213,248.687 250.515 C 248.884 250.782,249.016 251.405,248.978 251.900 C 248.940 252.395,249.060 252.800,249.245 252.800 C 249.429 252.800,249.401 253.271,249.183 253.846 C 248.877 254.649,248.903 254.846,249.293 254.697 C 249.623 254.571,249.831 254.920,249.887 255.695 C 249.935 256.351,250.176 257.130,250.422 257.426 C 250.668 257.723,250.753 258.153,250.611 258.382 C 250.469 258.612,250.573 258.800,250.843 258.800 C 251.113 258.800,251.228 258.905,251.100 259.034 C 250.882 259.251,251.471 260.123,252.729 261.445 C 253.019 261.750,253.147 262.000,253.013 262.000 C 252.878 262.000,253.001 262.251,253.284 262.558 C 253.568 262.865,253.923 263.042,254.073 262.951 C 254.223 262.860,254.650 263.300,255.021 263.928 C 255.638 264.973,257.120 265.974,258.900 266.549 C 259.285 266.673,259.600 267.028,259.600 267.336 C 259.600 267.967,262.549 268.597,263.324 268.132 C 263.686 267.915,263.686 267.988,263.320 268.440 C 262.929 268.924,262.985 269.044,263.629 269.092 C 264.136 269.130,264.318 268.982,264.140 268.676 C 263.987 268.414,264.208 268.483,264.631 268.828 C 265.628 269.643,270.106 269.627,271.900 268.802 L 273.200 268.205 273.200 260.895 L 273.200 253.585 272.100 253.854 C 271.495 254.002,270.940 254.276,270.867 254.462 C 270.638 255.041,267.424 254.832,266.488 254.177 C 265.999 253.834,265.457 253.641,265.284 253.748 C 265.111 253.855,264.931 253.479,264.884 252.912 C 264.837 252.345,264.602 251.643,264.360 251.352 C 263.786 250.661,264.279 246.998,265.030 246.375 C 265.339 246.119,265.501 245.763,265.390 245.583 C 264.901 244.793,269.690 244.247,271.000 244.944 C 271.440 245.178,271.935 245.332,272.100 245.285 C 272.265 245.238,272.400 245.461,272.400 245.780 C 272.400 246.099,272.715 246.544,273.100 246.768 C 273.485 246.992,273.643 247.181,273.451 247.188 C 273.259 247.195,273.349 247.498,273.651 247.861 C 274.084 248.383,274.200 250.640,274.200 258.561 C 274.200 264.786,274.352 268.715,274.600 268.902 C 275.183 269.342,288.853 269.210,288.579 268.766 C 288.455 268.565,288.498 268.400,288.676 268.400 C 288.854 268.401,288.910 263.613,288.800 257.762 C 288.690 251.910,288.744 247.034,288.919 246.926 C 289.095 246.817,289.030 246.477,288.775 246.169 C 288.519 245.862,288.415 245.338,288.543 245.005 C 288.670 244.672,288.601 244.400,288.387 244.400 C 288.174 244.400,288.000 244.209,288.000 243.976 C 288.000 243.743,288.225 243.688,288.500 243.853 C 288.891 244.088,288.889 244.017,288.493 243.527 C 288.214 243.183,288.110 242.579,288.261 242.185 C 288.460 241.666,288.396 241.556,288.025 241.784 C 287.642 242.021,287.586 241.874,287.800 241.200 C 287.995 240.587,287.945 240.387,287.643 240.574 C 287.376 240.739,287.200 240.532,287.200 240.053 C 287.200 239.616,286.891 239.199,286.514 239.127 C 286.057 239.039,285.819 238.595,285.800 237.797 C 285.783 237.082,285.576 236.640,285.286 236.700 C 285.018 236.755,284.800 236.551,284.800 236.246 C 284.800 235.941,284.344 235.393,283.787 235.028 C 283.226 234.660,282.897 234.167,283.049 233.921 C 283.203 233.671,283.143 233.588,282.912 233.731 C 282.686 233.871,282.019 233.538,281.430 232.993 C 280.841 232.447,280.008 232.000,279.579 232.000 C 279.151 232.000,278.800 231.826,278.800 231.613 C 278.800 231.399,279.115 231.321,279.500 231.438 C 279.885 231.555,279.701 231.361,279.091 231.008 C 278.480 230.654,277.805 230.473,277.591 230.606 C 277.376 230.739,277.187 230.612,277.172 230.324 C 277.156 230.036,276.989 230.160,276.800 230.600 C 276.483 231.337,276.454 231.342,276.428 230.657 C 276.410 230.174,276.195 229.993,275.813 230.140 C 275.490 230.264,275.119 230.193,274.989 229.983 C 274.859 229.772,274.169 229.600,273.456 229.600 C 272.743 229.600,271.944 229.384,271.680 229.120 C 271.307 228.747,271.199 228.769,271.194 229.220 C 271.189 229.713,271.131 229.710,270.806 229.200 C 270.505 228.727,270.268 228.697,269.686 229.057 C 269.168 229.378,268.728 229.391,268.210 229.101 C 267.585 228.752,267.515 228.801,267.753 229.422 C 268.019 230.114,267.993 230.118,267.285 229.477 C 266.872 229.104,266.410 228.923,266.257 229.076 M338.400 229.127 C 338.400 229.560,336.093 230.161,333.676 230.357 C 333.368 230.383,333.276 230.605,333.453 230.900 C 333.667 231.256,333.563 231.246,333.094 230.865 C 332.357 230.268,330.111 232.009,330.599 232.799 C 330.733 233.014,330.593 233.096,330.290 232.979 C 329.372 232.627,327.305 233.569,328.014 234.017 C 328.447 234.291,328.464 234.389,328.077 234.394 C 327.166 234.405,324.359 236.916,324.589 237.514 C 324.715 237.844,324.493 238.155,324.048 238.272 C 323.513 238.412,323.356 238.710,323.509 239.297 C 323.657 239.860,323.578 240.033,323.263 239.839 C 323.008 239.682,322.800 239.732,322.800 239.950 C 322.800 240.169,322.590 240.855,322.334 241.474 C 322.077 242.093,321.852 242.726,321.834 242.880 C 321.815 243.034,321.575 243.385,321.300 243.660 C 320.548 244.412,320.699 244.979,321.484 244.349 C 321.937 243.986,321.860 244.240,321.256 245.102 C 320.441 246.264,320.414 246.431,321.005 246.657 C 321.369 246.797,321.495 247.021,321.284 247.156 C 321.073 247.290,320.777 248.030,320.626 248.800 C 320.474 249.575,320.500 249.987,320.685 249.723 C 320.887 249.434,321.018 249.853,321.018 250.791 C 321.018 251.640,320.856 252.234,320.657 252.112 C 320.459 251.989,320.387 252.139,320.498 252.444 C 320.609 252.750,320.933 252.945,321.218 252.877 C 321.641 252.777,321.641 252.869,321.219 253.377 C 320.795 253.888,320.801 254.122,321.251 254.677 C 321.682 255.208,321.686 255.285,321.270 255.035 C 320.835 254.773,320.832 254.862,321.251 255.532 C 321.531 255.981,321.866 256.283,321.995 256.203 C 322.124 256.123,322.269 256.530,322.317 257.106 C 322.365 257.683,322.628 258.298,322.902 258.471 C 323.176 258.645,323.252 258.791,323.071 258.794 C 322.891 258.797,322.981 259.064,323.271 259.386 C 324.656 260.921,324.800 261.172,324.800 262.043 C 324.800 262.286,325.079 262.378,325.421 262.247 C 325.762 262.116,325.946 262.163,325.830 262.351 C 325.714 262.539,325.970 263.011,326.400 263.400 C 326.830 263.789,327.092 264.250,326.984 264.426 C 326.876 264.601,326.998 264.875,327.255 265.034 C 327.548 265.215,327.616 265.150,327.438 264.862 C 327.281 264.608,327.343 264.400,327.576 264.400 C 327.809 264.400,328.000 264.643,328.000 264.939 C 328.000 265.458,331.074 267.100,331.677 266.905 C 331.839 266.852,331.868 267.079,331.741 267.409 C 331.577 267.837,331.696 267.938,332.155 267.762 C 332.521 267.621,332.800 267.716,332.800 267.981 C 332.800 268.237,332.968 268.344,333.172 268.217 C 333.377 268.091,333.658 268.170,333.796 268.393 C 333.934 268.617,334.352 268.797,334.724 268.794 C 335.307 268.789,335.317 268.734,334.800 268.400 C 334.470 268.187,334.380 268.015,334.600 268.019 C 334.820 268.022,335.342 268.284,335.759 268.600 C 336.176 268.916,336.671 269.080,336.859 268.964 C 337.047 268.848,337.200 268.898,337.200 269.076 C 337.200 269.254,338.415 269.385,339.900 269.368 C 344.218 269.316,344.868 269.234,344.587 268.778 C 344.443 268.547,344.351 265.470,344.381 261.941 C 344.418 257.567,344.287 255.345,343.969 254.962 C 343.613 254.533,343.614 254.400,343.975 254.400 C 344.235 254.400,344.322 254.197,344.168 253.949 C 343.973 253.633,343.792 253.671,343.565 254.076 C 342.507 255.968,336.000 253.878,336.000 251.646 C 336.000 251.269,335.775 250.718,335.500 250.421 C 335.099 249.990,335.101 249.940,335.509 250.170 C 335.877 250.379,335.992 250.131,335.927 249.269 C 335.877 248.615,336.051 247.820,336.314 247.503 C 336.578 247.186,336.675 246.808,336.530 246.663 C 336.385 246.518,336.567 246.400,336.933 246.400 C 337.547 246.400,337.791 245.927,337.631 245.050 C 337.596 244.858,338.019 244.787,338.571 244.892 C 339.124 244.998,339.492 244.950,339.391 244.785 C 339.289 244.620,339.609 244.488,340.103 244.491 C 340.596 244.494,341.422 244.392,341.937 244.264 C 342.636 244.091,342.819 244.175,342.657 244.596 C 342.525 244.939,342.638 245.084,342.946 244.966 C 343.223 244.859,343.782 245.138,344.187 245.586 C 344.592 246.034,344.793 246.400,344.633 246.400 C 344.474 246.400,344.636 246.693,344.994 247.052 C 345.353 247.410,345.551 247.950,345.436 248.252 C 345.320 248.553,345.410 248.800,345.636 248.800 C 345.862 248.800,345.936 248.980,345.800 249.200 C 345.664 249.420,345.729 249.600,345.944 249.600 C 346.188 249.600,346.343 253.041,346.353 258.700 C 346.363 263.705,346.377 268.119,346.385 268.509 C 346.399 269.165,346.933 269.210,353.500 269.109 L 360.600 269.000 360.667 256.820 C 360.726 245.873,360.666 244.588,360.067 244.132 C 359.456 243.668,359.465 243.624,360.176 243.613 C 360.945 243.600,360.945 243.594,360.176 242.970 C 359.749 242.624,359.670 242.479,360.000 242.647 C 360.517 242.911,360.524 242.859,360.051 242.277 C 359.749 241.905,359.627 241.600,359.780 241.600 C 359.932 241.600,359.764 241.307,359.406 240.948 C 359.047 240.590,358.852 240.041,358.972 239.728 C 359.110 239.370,359.021 239.264,358.732 239.442 C 358.422 239.634,358.346 239.452,358.496 238.876 C 358.628 238.370,358.540 238.062,358.277 238.114 C 358.035 238.161,357.828 237.992,357.818 237.738 C 357.808 237.483,357.125 236.620,356.300 235.818 C 355.475 235.017,354.800 234.196,354.800 233.993 C 354.800 233.791,354.554 233.720,354.253 233.835 C 353.919 233.963,353.613 233.692,353.468 233.140 C 353.338 232.642,353.109 232.358,352.958 232.508 C 352.808 232.659,352.071 232.243,351.321 231.584 C 350.098 230.510,349.893 230.449,349.346 230.997 C 348.693 231.650,348.101 231.465,347.302 230.360 C 347.008 229.953,346.392 229.715,345.802 229.780 C 345.251 229.841,344.800 229.765,344.800 229.612 C 344.800 229.274,344.404 229.208,341.696 229.091 C 340.149 229.024,339.642 229.132,339.783 229.500 C 340.041 230.173,339.787 230.130,339.029 229.371 C 338.683 229.026,338.400 228.916,338.400 229.127 M121.500 229.876 C 120.769 230.067,120.502 231.600,121.200 231.600 C 121.744 231.600,121.750 266.260,121.206 266.596 C 120.989 266.730,120.849 267.280,120.893 267.818 C 121.001 269.115,121.981 269.271,129.000 269.106 L 134.600 268.975 128.300 268.888 C 124.835 268.839,122.000 268.665,121.999 268.500 C 121.999 268.038,134.118 268.400,134.696 268.879 C 135.066 269.187,135.200 269.126,135.200 268.649 C 135.200 268.292,135.335 268.000,135.500 268.000 C 135.665 268.000,135.800 259.585,135.800 249.300 L 135.800 230.600 128.800 230.734 C 124.950 230.808,121.949 230.718,122.132 230.534 C 122.314 230.350,125.194 230.101,128.532 229.980 L 134.600 229.759 128.400 229.726 C 124.990 229.708,121.885 229.775,121.500 229.876 M190.442 234.032 C 190.377 237.397,190.477 238.401,190.878 238.406 C 191.255 238.411,191.271 238.494,190.936 238.706 C 190.681 238.868,193.651 238.943,197.535 238.873 C 206.275 238.716,206.068 238.833,205.964 234.121 C 205.924 232.294,205.736 230.800,205.546 230.800 C 205.356 230.800,205.200 230.530,205.200 230.200 C 205.200 229.870,205.009 229.600,204.776 229.600 C 204.543 229.600,204.488 229.825,204.653 230.100 C 204.883 230.483,204.806 230.480,204.320 230.087 C 203.857 229.712,201.919 229.587,197.108 229.620 L 190.528 229.665 190.442 234.032 M205.092 235.491 C 205.005 236.321,204.933 235.740,204.931 234.200 C 204.929 232.660,205.000 231.981,205.089 232.691 C 205.177 233.401,205.179 234.661,205.092 235.491 M254.000 236.400 C 253.493 236.840,252.987 237.200,252.877 237.200 C 252.766 237.200,253.002 236.840,253.400 236.400 C 253.798 235.960,254.304 235.600,254.523 235.600 C 254.743 235.600,254.507 235.960,254.000 236.400 M190.900 240.665 C 190.115 240.981,190.206 248.350,190.998 248.654 C 191.326 248.781,191.493 249.049,191.368 249.252 C 191.232 249.472,193.834 249.575,197.836 249.510 L 204.532 249.400 205.286 248.050 C 206.328 246.184,206.213 240.400,205.134 240.400 C 204.924 240.400,204.880 240.625,205.035 240.900 C 205.261 241.300,205.210 241.300,204.779 240.900 C 204.243 240.403,192.061 240.197,190.900 240.665 M205.089 246.100 C 205.001 246.815,204.928 246.230,204.928 244.800 C 204.928 243.370,205.001 242.785,205.089 243.500 C 205.178 244.215,205.178 245.385,205.089 246.100 M200.900 249.097 C 199.305 249.173,196.695 249.173,195.100 249.097 C 193.505 249.021,194.810 248.959,198.000 248.959 C 201.190 248.959,202.495 249.021,200.900 249.097 M184.165 256.800 C 184.165 260.650,184.225 262.225,184.298 260.300 C 184.371 258.375,184.371 255.225,184.298 253.300 C 184.225 251.375,184.165 252.950,184.165 256.800 M190.426 254.303 L 190.361 258.405 191.452 258.820 C 192.935 259.383,204.322 259.255,205.269 258.664 C 205.874 258.286,206.000 257.678,206.000 255.136 C 206.000 250.756,205.452 249.869,205.173 253.800 L 204.947 257.000 204.873 253.717 L 204.800 250.435 197.646 250.317 L 190.491 250.200 190.426 254.303 M352.000 257.000 C 352.000 257.373,351.622 257.600,351.000 257.600 C 350.378 257.600,350.000 257.373,350.000 257.000 C 350.000 256.627,350.378 256.400,351.000 256.400 C 351.622 256.400,352.000 256.627,352.000 257.000 M190.801 259.933 C 191.020 260.007,191.200 260.242,191.200 260.457 C 191.200 260.672,191.020 260.736,190.800 260.600 C 190.257 260.265,190.270 267.410,190.814 268.426 C 191.199 269.145,191.716 269.200,198.147 269.200 C 205.224 269.200,205.938 269.089,205.129 268.114 C 204.766 267.678,204.789 267.582,205.232 267.677 C 205.671 267.772,205.827 267.173,205.920 265.040 C 206.085 261.220,205.494 260.240,205.171 263.800 L 204.918 266.600 204.917 263.512 C 204.916 261.814,205.040 260.501,205.191 260.595 C 205.343 260.688,205.467 260.548,205.467 260.282 C 205.467 259.923,203.547 259.800,197.934 259.800 C 193.791 259.800,190.581 259.860,190.801 259.933 M288.000 268.500 C 288.000 268.665,285.120 268.800,281.600 268.800 C 278.080 268.800,275.200 268.665,275.200 268.500 C 275.200 268.335,278.080 268.200,281.600 268.200 C 285.120 268.200,288.000 268.335,288.000 268.500 M310.400 268.400 C 310.400 268.654,307.956 268.769,303.700 268.715 L 297.000 268.631 303.400 268.400 C 306.920 268.273,309.935 268.131,310.100 268.085 C 310.265 268.038,310.400 268.180,310.400 268.400 M359.919 268.586 C 360.037 268.704,357.123 268.800,353.443 268.800 C 349.763 268.800,346.836 268.665,346.938 268.500 C 347.144 268.166,359.581 268.248,359.919 268.586 " stroke="none" fill="#8c2c74" fill-rule="evenodd"></path><path id="path3" d="M67.123 216.299 C 69.831 216.368,74.151 216.368,76.723 216.299 C 79.295 216.229,77.080 216.172,71.800 216.173 C 66.520 216.173,64.415 216.230,67.123 216.299 M224.300 216.297 C 225.895 216.373,228.505 216.373,230.100 216.297 C 231.695 216.221,230.390 216.159,227.200 216.159 C 224.010 216.159,222.705 216.221,224.300 216.297 M301.300 216.297 C 303.005 216.372,305.795 216.372,307.500 216.297 C 309.205 216.222,307.810 216.161,304.400 216.161 C 300.990 216.161,299.595 216.222,301.300 216.297 M311.388 242.400 C 311.388 255.930,311.438 261.465,311.500 254.700 C 311.561 247.935,311.561 236.865,311.500 230.100 C 311.438 223.335,311.388 228.870,311.388 242.400 M78.700 231.889 C 79.415 231.978,80.585 231.978,81.300 231.889 C 82.015 231.801,81.430 231.728,80.000 231.728 C 78.570 231.728,77.985 231.801,78.700 231.889 M135.784 249.200 C 135.784 258.990,135.836 262.995,135.900 258.100 C 135.963 253.205,135.963 245.195,135.900 240.300 C 135.836 235.405,135.784 239.410,135.784 249.200 M76.984 250.600 C 76.984 260.500,77.036 264.493,77.100 259.473 C 77.163 254.453,77.163 246.353,77.100 241.473 C 77.036 236.593,76.984 240.700,76.984 250.600 M194.918 239.098 C 196.633 239.173,199.333 239.172,200.918 239.097 C 202.503 239.021,201.100 238.959,197.800 238.960 C 194.500 238.961,193.203 239.022,194.918 239.098 M183.766 256.400 C 183.766 260.470,183.825 262.135,183.898 260.100 C 183.971 258.065,183.971 254.735,183.898 252.700 C 183.825 250.665,183.766 252.330,183.766 256.400 M346.167 258.800 C 346.167 263.090,346.226 264.845,346.298 262.700 C 346.370 260.555,346.370 257.045,346.298 254.900 C 346.226 252.755,346.167 254.510,346.167 258.800 M344.561 261.600 C 344.561 265.010,344.622 266.405,344.697 264.700 C 344.772 262.995,344.772 260.205,344.697 258.500 C 344.622 256.795,344.561 258.190,344.561 261.600 M194.719 259.898 C 196.544 259.972,199.424 259.972,201.119 259.897 C 202.814 259.822,201.320 259.761,197.800 259.762 C 194.280 259.762,192.894 259.824,194.719 259.898 M154.864 277.900 C 154.934 283.926,155.116 283.412,155.289 276.700 C 155.350 274.334,155.265 272.399,155.100 272.400 C 154.935 272.400,154.829 274.875,154.864 277.900 M162.305 286.283 C 162.802 286.379,163.522 286.375,163.905 286.275 C 164.287 286.175,163.880 286.096,163.000 286.101 C 162.120 286.105,161.807 286.187,162.305 286.283 " stroke="none" fill="#942c74" fill-rule="evenodd"></path><path id="path4" d="M65.000 215.882 C 75.011 216.165,83.909 216.174,83.739 215.900 C 83.637 215.735,78.478 215.638,72.276 215.684 C 66.074 215.731,62.800 215.820,65.000 215.882 M222.600 215.873 C 228.425 216.161,234.710 216.175,234.539 215.900 C 234.437 215.735,231.168 215.635,227.276 215.677 C 223.384 215.719,221.280 215.808,222.600 215.873 M297.061 215.900 C 296.958 216.065,298.972 216.153,301.537 216.095 C 310.140 215.902,311.052 215.755,304.124 215.677 C 300.342 215.635,297.163 215.735,297.061 215.900 M219.209 232.158 C 219.192 242.791,219.321 248.027,219.604 248.202 C 219.896 248.383,220.013 243.611,219.986 232.639 C 219.965 223.853,219.790 216.717,219.592 216.595 C 219.385 216.467,219.224 223.027,219.209 232.158 M96.171 218.609 C 96.595 218.929,97.040 219.094,97.159 218.974 C 97.410 218.723,96.394 218.009,95.800 218.019 C 95.580 218.022,95.747 218.288,96.171 218.609 M234.159 223.600 C 234.159 226.790,234.221 228.095,234.297 226.500 C 234.373 224.905,234.373 222.295,234.297 220.700 C 234.221 219.105,234.159 220.410,234.159 223.600 M310.988 242.200 C 310.988 255.620,311.038 261.052,311.100 254.271 C 311.161 247.490,311.161 236.510,311.100 229.871 C 311.038 223.232,310.988 228.780,310.988 242.200 M118.606 218.790 C 118.469 219.012,118.560 219.510,118.809 219.897 C 119.203 220.511,119.234 220.515,119.053 219.926 C 118.938 219.555,119.051 219.183,119.303 219.099 C 119.642 218.986,119.644 218.874,119.308 218.667 C 119.059 218.513,118.743 218.568,118.606 218.790 M126.393 226.004 C 126.050 226.216,126.040 226.377,126.357 226.574 C 126.601 226.724,126.800 226.635,126.800 226.375 C 126.800 226.018,126.943 226.021,127.387 226.389 C 127.709 226.657,128.153 226.814,128.373 226.738 C 128.594 226.662,128.346 226.399,127.822 226.154 C 127.299 225.909,126.656 225.842,126.393 226.004 M128.532 229.980 C 125.194 230.101,122.329 230.335,122.165 230.500 C 121.812 230.855,134.046 230.911,134.965 230.558 C 135.557 230.331,135.474 229.508,134.876 229.680 C 134.724 229.723,131.869 229.858,128.532 229.980 M347.283 230.355 C 347.553 230.710,347.799 231.049,347.830 231.110 C 347.861 231.170,348.096 230.967,348.352 230.658 C 348.727 230.205,348.622 230.059,347.805 229.903 C 346.926 229.735,346.858 229.795,347.283 230.355 M79.305 231.487 C 79.914 231.579,80.814 231.577,81.305 231.482 C 81.797 231.387,81.300 231.311,80.200 231.314 C 79.100 231.317,78.697 231.395,79.305 231.487 M120.800 249.176 C 120.800 259.982,120.948 266.844,121.184 266.990 C 121.428 267.141,121.577 260.695,121.592 249.414 C 121.607 237.570,121.478 231.600,121.208 231.600 C 120.937 231.600,120.800 237.509,120.800 249.176 M204.931 234.200 C 204.933 235.740,205.005 236.321,205.092 235.491 C 205.179 234.661,205.177 233.401,205.089 232.691 C 205.000 231.981,204.929 232.660,204.931 234.200 M240.962 238.200 C 240.962 241.720,241.024 243.106,241.098 241.281 C 241.172 239.456,241.172 236.576,241.097 234.881 C 241.022 233.186,240.961 234.680,240.962 238.200 M328.867 232.750 C 328.512 232.975,328.735 233.074,329.527 233.044 C 330.184 233.020,330.638 232.865,330.537 232.700 C 330.295 232.305,329.532 232.328,328.867 232.750 M94.400 241.976 C 94.400 242.649,94.469 243.200,94.553 243.200 C 94.893 243.200,95.069 241.166,94.746 240.967 C 94.556 240.849,94.400 241.303,94.400 241.976 M204.928 244.800 C 204.928 246.230,205.001 246.815,205.089 246.100 C 205.178 245.385,205.178 244.215,205.089 243.500 C 205.001 242.785,204.928 243.370,204.928 244.800 M235.409 246.385 C 235.242 246.655,236.034 246.798,237.676 246.794 C 241.186 246.785,241.808 246.181,238.427 246.065 C 236.846 246.011,235.556 246.147,235.409 246.385 M195.100 249.097 C 196.695 249.173,199.305 249.173,200.900 249.097 C 202.495 249.021,201.190 248.959,198.000 248.959 C 194.810 248.959,193.505 249.021,195.100 249.097 M288.972 258.200 C 288.972 263.260,289.029 265.275,289.099 262.677 C 289.169 260.080,289.168 255.940,289.098 253.477 C 289.028 251.015,288.971 253.140,288.972 258.200 M345.600 258.800 C 345.600 263.860,345.735 268.000,345.900 268.000 C 346.065 268.000,346.200 263.860,346.200 258.800 C 346.200 253.740,346.065 249.600,345.900 249.600 C 345.735 249.600,345.600 253.740,345.600 258.800 M194.900 250.297 C 196.605 250.372,199.395 250.372,201.100 250.297 C 202.805 250.222,201.410 250.161,198.000 250.161 C 194.590 250.161,193.195 250.222,194.900 250.297 M205.067 250.267 C 204.920 250.413,204.830 251.988,204.868 253.767 L 204.935 257.000 205.181 253.600 C 205.450 249.873,205.450 249.883,205.067 250.267 M274.169 258.600 C 274.170 263.220,274.228 265.055,274.299 262.678 C 274.370 260.301,274.369 256.521,274.298 254.278 C 274.227 252.035,274.169 253.980,274.169 258.600 M78.416 260.724 C 78.441 265.171,78.615 268.714,78.803 268.598 C 78.991 268.482,79.258 268.570,79.396 268.793 C 79.534 269.017,79.817 269.200,80.024 269.200 C 80.231 269.200,80.029 268.829,79.575 268.375 C 78.796 267.596,78.754 267.148,78.832 260.365 C 78.877 256.414,78.792 253.059,78.643 252.910 C 78.494 252.760,78.392 256.277,78.416 260.724 M351.145 256.758 C 351.606 257.049,351.606 257.137,351.145 257.320 C 350.765 257.471,350.812 257.546,351.300 257.568 C 351.685 257.586,352.000 257.330,352.000 257.000 C 352.000 256.670,351.685 256.403,351.300 256.406 C 350.752 256.411,350.719 256.487,351.145 256.758 M204.931 263.800 C 204.933 265.340,205.005 265.921,205.092 265.091 C 205.179 264.261,205.177 263.001,205.089 262.291 C 205.000 261.581,204.929 262.260,204.931 263.800 M224.654 262.712 C 224.519 262.931,224.677 263.332,225.004 263.604 C 225.655 264.143,225.791 263.720,225.244 262.857 C 225.035 262.528,224.804 262.471,224.654 262.712 M61.600 268.466 C 61.600 268.613,64.795 268.723,68.700 268.710 C 76.828 268.684,76.197 268.474,67.500 268.311 C 64.255 268.250,61.600 268.320,61.600 268.466 M121.999 268.500 C 122.000 268.665,124.835 268.770,128.300 268.733 C 135.181 268.659,134.587 268.480,126.899 268.309 C 124.204 268.249,121.999 268.335,121.999 268.500 M275.200 268.500 C 275.200 268.665,278.080 268.800,281.600 268.800 C 285.120 268.800,288.000 268.665,288.000 268.500 C 288.000 268.335,285.120 268.200,281.600 268.200 C 278.080 268.200,275.200 268.335,275.200 268.500 M303.400 268.400 L 297.000 268.631 303.700 268.715 C 307.956 268.769,310.400 268.654,310.400 268.400 C 310.400 268.180,310.265 268.038,310.100 268.085 C 309.935 268.131,306.920 268.273,303.400 268.400 M346.938 268.500 C 346.836 268.665,349.763 268.800,353.443 268.800 C 357.123 268.800,360.037 268.704,359.919 268.586 C 359.581 268.248,347.144 268.166,346.938 268.500 M154.933 271.800 C 154.933 272.130,155.168 272.400,155.454 272.400 C 155.753 272.400,155.877 272.144,155.745 271.800 C 155.618 271.470,155.384 271.200,155.224 271.200 C 155.064 271.200,154.933 271.470,154.933 271.800 M170.765 284.333 C 171.214 284.647,171.133 284.769,170.365 284.929 C 169.470 285.116,169.467 285.126,170.316 285.066 C 171.306 284.995,171.594 284.309,170.730 284.080 C 170.338 283.976,170.347 284.042,170.765 284.333 " stroke="none" fill="#8d2c7c" fill-rule="evenodd"></path></g></svg>